<svg width="18" height="18" viewBox="0 0 18 18" fill="none" xmlns="http://www.w3.org/2000/svg">
<path d="M14.6667 3.33398H3.33341C2.95892 3.33586 2.6004 3.48594 2.33626 3.75141C2.07211 4.01689 1.92383 4.37615 1.92383 4.75065L1.91675 13.2507C1.91675 14.0298 2.55425 14.6673 3.33341 14.6673H14.6667C15.0425 14.6673 15.4028 14.5181 15.6685 14.2524C15.9342 13.9867 16.0834 13.6264 16.0834 13.2507V4.75065C16.0834 4.37493 15.9342 4.01459 15.6685 3.74892C15.4028 3.48324 15.0425 3.33398 14.6667 3.33398ZM14.3834 6.3444L9.3755 9.47523C9.14883 9.6169 8.85133 9.6169 8.62466 9.47523L3.61675 6.3444C3.54572 6.30453 3.48352 6.25066 3.43392 6.18606C3.38431 6.12145 3.34833 6.04745 3.32816 5.96854C3.30798 5.88963 3.30402 5.80744 3.31653 5.72695C3.32903 5.64647 3.35774 5.56935 3.40091 5.50028C3.44408 5.43121 3.50081 5.37162 3.56768 5.32511C3.63455 5.2786 3.71016 5.24614 3.78993 5.2297C3.86971 5.21325 3.95199 5.21317 4.0318 5.22945C4.11161 5.24573 4.18728 5.27803 4.25425 5.3244L9.00008 8.29232L13.7459 5.3244C13.8129 5.27803 13.8886 5.24573 13.9684 5.22945C14.0482 5.21317 14.1305 5.21325 14.2102 5.2297C14.29 5.24614 14.3656 5.2786 14.4325 5.32511C14.4994 5.37162 14.5561 5.43121 14.5993 5.50028C14.6424 5.56935 14.6711 5.64647 14.6836 5.72695C14.6961 5.80744 14.6922 5.88963 14.672 5.96854C14.6518 6.04745 14.6158 6.12145 14.5662 6.18606C14.5166 6.25066 14.4544 6.30453 14.3834 6.3444Z" fill="white"/>
</svg>
