<svg width="16" height="16" viewBox="0 0 16 16" fill="none" xmlns="http://www.w3.org/2000/svg">
<g clip-path="url(#clip0_140_11484)">
<path d="M8 5.5C7.33696 5.5 6.70107 5.76339 6.23223 6.23223C5.76339 6.70107 5.5 7.33696 5.5 8C5.5 8.66304 5.76339 9.29893 6.23223 9.76777C6.70107 10.2366 7.33696 10.5 8 10.5C8.66304 10.5 9.29893 10.2366 9.76777 9.76777C10.2366 9.29893 10.5 8.66304 10.5 8C10.5 7.33696 10.2366 6.70107 9.76777 6.23223C9.29893 5.76339 8.66304 5.5 8 5.5Z" fill="white"/>
<path fill-rule="evenodd" clip-rule="evenodd" d="M5 0.5C3.80653 0.5 2.66193 0.974106 1.81802 1.81802C0.974106 2.66193 0.5 3.80653 0.5 5L0.5 11C0.5 12.1935 0.974106 13.3381 1.81802 14.182C2.66193 15.0259 3.80653 15.5 5 15.5H11C12.1935 15.5 13.3381 15.0259 14.182 14.182C15.0259 13.3381 15.5 12.1935 15.5 11V5C15.5 3.80653 15.0259 2.66193 14.182 1.81802C13.3381 0.974106 12.1935 0.5 11 0.5L5 0.5ZM4.5 8C4.5 7.07174 4.86875 6.1815 5.52513 5.52513C6.1815 4.86875 7.07174 4.5 8 4.5C8.92826 4.5 9.8185 4.86875 10.4749 5.52513C11.1313 6.1815 11.5 7.07174 11.5 8C11.5 8.92826 11.1313 9.8185 10.4749 10.4749C9.8185 11.1313 8.92826 11.5 8 11.5C7.07174 11.5 6.1815 11.1313 5.52513 10.4749C4.86875 9.8185 4.5 8.92826 4.5 8ZM11.5 4.5H12.5V3.5H11.5V4.5Z" fill="white"/>
</g>
<defs>
<clipPath id="clip0_140_11484">
<rect width="15" height="15" fill="white" transform="translate(0.5 0.5)"/>
</clipPath>
</defs>
</svg>
