<svg width="15" height="16" viewBox="0 0 15 16" fill="none" xmlns="http://www.w3.org/2000/svg">
<path d="M7.5 7.0625C8.01777 7.0625 8.4375 6.64277 8.4375 6.125C8.4375 5.60723 8.01777 5.1875 7.5 5.1875C6.98223 5.1875 6.5625 5.60723 6.5625 6.125C6.5625 6.64277 6.98223 7.0625 7.5 7.0625Z" fill="#C6B624"/>
<path d="M7.5 1.4375C4.91543 1.4375 2.8125 3.44873 2.8125 5.91992C2.8125 7.09678 3.34893 8.66182 4.40684 10.5717C5.25645 12.1051 6.23936 13.4917 6.75059 14.1816C6.83697 14.2995 6.94992 14.3954 7.08028 14.4615C7.21063 14.5276 7.35473 14.562 7.50088 14.562C7.64703 14.562 7.79112 14.5276 7.92148 14.4615C8.05184 14.3954 8.16479 14.2995 8.25117 14.1816C8.76152 13.4917 9.74531 12.1051 10.5949 10.5717C11.6511 8.6624 12.1875 7.09736 12.1875 5.91992C12.1875 3.44873 10.0846 1.4375 7.5 1.4375ZM7.5 8C7.12916 8 6.76665 7.89003 6.45831 7.68401C6.14996 7.47798 5.90964 7.18514 5.76773 6.84253C5.62581 6.49992 5.58868 6.12292 5.66103 5.75921C5.73337 5.39549 5.91195 5.0614 6.17417 4.79917C6.4364 4.53695 6.77049 4.35837 7.13421 4.28603C7.49792 4.21368 7.87492 4.25081 8.21753 4.39273C8.56014 4.53464 8.85298 4.77496 9.05901 5.08331C9.26503 5.39165 9.375 5.75416 9.375 6.125C9.37446 6.62211 9.17674 7.09871 8.82523 7.45023C8.47371 7.80174 7.99711 7.99946 7.5 8Z" fill="#C6B624"/>
</svg>
