<svg width="18" height="18" viewBox="0 0 18 18" fill="none" xmlns="http://www.w3.org/2000/svg">
<path d="M16.4092 4.75065C15.8637 4.99857 15.2758 5.16148 14.6667 5.2394C15.29 4.86398 15.7717 4.26898 15.9983 3.55357C15.4104 3.90773 14.7587 4.15565 14.0717 4.29732C13.5121 3.68815 12.7258 3.33398 11.8333 3.33398C10.1687 3.33398 8.80874 4.69398 8.80874 6.37273C8.80874 6.61357 8.83707 6.84732 8.88665 7.0669C6.36499 6.9394 4.11957 5.72815 2.62499 3.89357C2.3629 4.33982 2.21415 4.86398 2.21415 5.41648C2.21415 6.4719 2.7454 7.4069 3.56707 7.93815C3.06415 7.93815 2.59665 7.79648 2.18582 7.58398V7.60523C2.18582 9.07857 3.23415 10.3111 4.62249 10.5873C4.17675 10.7093 3.7088 10.7263 3.2554 10.6369C3.44779 11.2407 3.82458 11.7691 4.33279 12.1477C4.841 12.5263 5.4551 12.7362 6.08874 12.7477C5.01464 13.598 3.68323 14.0577 2.31332 14.0511C2.07249 14.0511 1.83165 14.0369 1.59082 14.0086C2.93665 14.8727 4.53749 15.3757 6.25165 15.3757C11.8333 15.3757 14.9004 10.7432 14.9004 6.7269C14.9004 6.59232 14.9004 6.46482 14.8933 6.33023C15.4883 5.90523 15.9983 5.3669 16.4092 4.75065Z" fill="white"/>
</svg>
