<svg width="17" height="18" viewBox="0 0 17 18" fill="none" xmlns="http://www.w3.org/2000/svg">
<g clip-path="url(#clip0_140_11470)">
<path d="M12.896 3.60823C13.0546 3.99182 13.3591 4.29672 13.7424 4.45591L15.0866 5.0127C15.4702 5.1716 15.775 5.47638 15.9339 5.86C16.0928 6.24362 16.0928 6.67465 15.9339 7.05826L15.3775 8.40152C15.2186 8.7853 15.2183 9.21677 15.378 9.60037L15.9335 10.9432C16.0122 11.1332 16.0528 11.3369 16.0528 11.5426C16.0529 11.7483 16.0124 11.9519 15.9337 12.142C15.855 12.332 15.7396 12.5046 15.5941 12.65C15.4486 12.7955 15.2759 12.9108 15.0859 12.9894L13.7426 13.5458C13.3591 13.7044 13.0542 14.0089 12.895 14.3922L12.3382 15.7365C12.1793 16.1201 11.8745 16.4249 11.4909 16.5838C11.1073 16.7427 10.6762 16.7427 10.2926 16.5838L8.94936 16.0274C8.56573 15.8689 8.13486 15.8692 7.75147 16.0283L6.40725 16.5843C6.02385 16.7428 5.5932 16.7427 5.20989 16.5839C4.82658 16.4251 4.52197 16.1207 4.36296 15.7375L3.806 14.3929C3.6474 14.0093 3.34295 13.7044 2.95961 13.5452L1.61539 12.9884C1.23194 12.8296 0.927245 12.525 0.768287 12.1416C0.609328 11.7582 0.609113 11.3274 0.767687 10.9438L1.32408 9.60055C1.48259 9.21692 1.48227 8.78605 1.32318 8.40266L0.767586 7.05748C0.688814 6.86747 0.648253 6.66381 0.648219 6.45813C0.648187 6.25245 0.688683 6.04877 0.767394 5.85875C0.846105 5.66872 0.961489 5.49607 1.10695 5.35065C1.25242 5.20524 1.42511 5.08991 1.61516 5.01126L2.95841 4.45486C3.34166 4.29639 3.64638 3.99234 3.80568 3.60943L4.36248 2.26521C4.52138 1.88159 4.82616 1.57681 5.20978 1.41791C5.5934 1.25901 6.02442 1.25901 6.40804 1.41791L7.75129 1.9743C8.13492 2.13281 8.5658 2.13249 8.94919 1.9734L10.294 1.41877C10.6775 1.25996 11.1085 1.25999 11.492 1.41886C11.8756 1.57773 12.1803 1.88243 12.3392 2.26594L12.8962 3.61056L12.896 3.60823Z" fill="#0788F5"/>
<path fill-rule="evenodd" clip-rule="evenodd" d="M11.6206 6.81127C11.7322 6.63605 11.7695 6.42368 11.7245 6.2209C11.6795 6.01811 11.5558 5.84152 11.3805 5.72996C11.2053 5.6184 10.993 5.58102 10.7902 5.62604C10.5874 5.67106 10.4108 5.79479 10.2992 5.97002L7.23377 10.7869L5.83099 9.03339C5.7013 8.87117 5.51248 8.76712 5.30607 8.74412C5.09967 8.72112 4.89258 8.78106 4.73036 8.91075C4.56815 9.04044 4.4641 9.22925 4.4411 9.43566C4.4181 9.64207 4.47804 9.84916 4.60773 10.0114L6.6952 12.6207C6.773 12.7181 6.87292 12.7955 6.98665 12.8464C7.10038 12.8974 7.22464 12.9205 7.34909 12.9137C7.47354 12.907 7.59458 12.8706 7.70214 12.8077C7.80971 12.7447 7.90069 12.657 7.96752 12.5518L11.6206 6.81127Z" fill="white"/>
</g>
<defs>
<clipPath id="clip0_140_11470">
<rect width="16.6998" height="16.6998" fill="white" transform="translate(0 0.650391)"/>
</clipPath>
</defs>
</svg>
