<svg width="16" height="12" viewBox="0 0 16 12" fill="none" xmlns="http://www.w3.org/2000/svg">
<g clip-path="url(#clip0_140_11491)">
<path fill-rule="evenodd" clip-rule="evenodd" d="M14.2602 0.367059C14.9456 0.564706 15.4859 1.14353 15.6704 1.87765C16.0131 3.21882 15.9999 6.01412 15.9999 6.01412C15.9999 6.01412 15.9999 8.79529 15.6704 10.1365C15.4859 10.8706 14.9456 11.4494 14.2602 11.6471C13.0082 12 7.99997 12 7.99997 12C7.99997 12 3.00493 12 1.7397 11.6329C1.05436 11.4353 0.514001 10.8565 0.329488 10.1224C0 8.79529 0 6 0 6C0 6 0 3.21882 0.329488 1.87765C0.514001 1.14353 1.06754 0.550588 1.7397 0.352941C2.99175 0 7.99997 0 7.99997 0C7.99997 0 13.0082 0 14.2602 0.367059ZM10.6667 6.00001L6.40002 8.72728V3.27274L10.6667 6.00001Z" fill="white"/>
</g>
<defs>
<clipPath id="clip0_140_11491">
<rect width="16" height="12" fill="white"/>
</clipPath>
</defs>
</svg>
